<?xml version="1.0" standalone="no"?>
<!DOCTYPE svg PUBLIC "-//W3C//DTD SVG 20010904//EN"
 "http://www.w3.org/TR/2001/REC-SVG-20010904/DTD/svg10.dtd">
<svg version="1.0" xmlns="http://www.w3.org/2000/svg"
 width="500.000000pt" height="500.000000pt" viewBox="0 0 500.000000 500.000000"
 preserveAspectRatio="xMidYMid meet">
<metadata>
Created by potrace 1.15, written by Peter Selinger 2001-2017
</metadata>
<g transform="translate(0.000000,500.000000) scale(0.100000,-0.100000)"
fill="#000000" stroke="none">
<path d="M1571 4976 c-12 -13 -25 -41 -28 -63 -5 -36 3 -50 110 -213 l116
-174 -55 -30 c-209 -117 -404 -323 -513 -542 -70 -141 -94 -232 -99 -375 l-4
-126 -61 25 c-53 21 -72 24 -156 20 -80 -3 -106 -9 -156 -33 -76 -37 -153
-113 -191 -190 l-29 -60 0 -715 0 -715 29 -60 c38 -77 115 -153 191 -190 50
-24 76 -30 156 -33 84 -4 103 -1 157 21 l62 25 0 -163 c0 -161 0 -162 31 -223
55 -112 143 -162 281 -162 l87 0 3 -358 3 -357 29 -60 c38 -77 114 -153 191
-191 56 -27 68 -29 175 -29 107 0 119 2 175 29 77 38 153 114 191 191 l29 60
3 358 3 357 199 0 199 0 3 -357 3 -358 29 -60 c38 -77 114 -153 191 -191 56
-27 68 -29 175 -29 107 0 119 2 175 29 77 38 153 114 191 191 l29 60 3 357 3
358 87 0 c138 0 226 50 281 162 31 61 31 62 31 223 l0 163 62 -25 c54 -22 73
-25 157 -21 80 3 106 9 156 33 76 37 153 113 191 190 l29 60 0 715 0 715 -29
60 c-38 77 -115 153 -191 190 -50 24 -76 30 -156 33 -85 4 -103 1 -157 -21
l-62 -25 1 97 c2 143 -33 271 -120 436 -109 209 -300 404 -500 514 l-50 27
116 174 c107 163 115 177 110 213 -8 60 -40 87 -103 87 -64 0 -66 -3 -214
-223 -71 -106 -110 -156 -120 -153 -8 2 -51 13 -95 25 -130 35 -260 51 -425
51 -170 0 -294 -16 -439 -55 -52 -14 -95 -24 -96 -23 -1 2 -55 82 -121 178
-65 96 -125 180 -134 187 -8 7 -38 13 -66 13 -41 0 -55 -5 -73 -24z m1154
-502 c319 -50 614 -233 785 -485 40 -58 120 -216 135 -266 l6 -23 -1151 0
-1151 0 6 23 c15 50 95 208 135 266 99 147 253 280 426 368 244 125 510 164
809 117z m975 -2066 c0 -729 -4 -1106 -11 -1131 -21 -78 73 -72 -1189 -72
-1262 0 -1168 -6 -1189 72 -7 25 -11 402 -11 1131 l0 1092 1200 0 1200 0 0
-1092z m-2712 863 c42 -22 62 -42 88 -91 18 -33 19 -69 19 -680 0 -640 0 -645
-21 -685 -38 -71 -95 -105 -174 -105 -79 0 -136 34 -174 105 -21 40 -21 45
-21 685 0 640 0 645 21 685 24 45 45 65 89 88 42 22 127 21 173 -2z m3200 0
c42 -22 62 -42 88 -91 18 -33 19 -69 19 -680 0 -640 0 -645 -21 -685 -38 -71
-95 -105 -174 -105 -79 0 -136 34 -174 105 -21 40 -21 45 -21 685 0 640 0 645
21 685 24 45 45 65 89 88 42 22 127 21 173 -2z m-2090 -2593 c-3 -308 -4 -325
-24 -363 -38 -71 -95 -105 -174 -105 -80 0 -136 35 -176 110 -17 32 -19 65
-22 358 l-3 322 201 0 201 0 -3 -322z m1200 0 c-3 -308 -4 -325 -24 -363 -38
-71 -95 -105 -174 -105 -80 0 -136 35 -176 110 -17 32 -19 65 -22 358 l-3 322
201 0 201 0 -3 -322z"/>
<path d="M1866 4181 c-46 -31 -66 -69 -66 -131 0 -95 55 -150 150 -150 95 0
150 55 150 150 0 95 -55 150 -150 150 -37 0 -64 -6 -84 -19z"/>
<path d="M2966 4181 c-46 -31 -66 -69 -66 -131 0 -62 20 -100 66 -131 39 -26
129 -26 168 0 46 31 66 69 66 131 0 62 -20 100 -66 131 -20 13 -47 19 -84 19
-37 0 -64 -6 -84 -19z"/>
</g>
</svg>
