<?xml version="1.0" standalone="no"?>
<!DOCTYPE svg PUBLIC "-//W3C//DTD SVG 20010904//EN"
 "http://www.w3.org/TR/2001/REC-SVG-20010904/DTD/svg10.dtd">
<svg version="1.0" xmlns="http://www.w3.org/2000/svg"
 width="500.000000pt" height="500.000000pt" viewBox="0 0 500.000000 500.000000"
 preserveAspectRatio="xMidYMid meet">
<metadata>
Created by potrace 1.15, written by Peter Selinger 2001-2017
</metadata>
<g transform="translate(0.000000,500.000000) scale(0.100000,-0.100000)"
fill="#000000" stroke="none">
<path d="M2300 4924 c-244 -14 -477 -37 -509 -50 -42 -18 -97 -67 -118 -108
-8 -15 -37 -94 -64 -173 -27 -80 -67 -182 -88 -227 -49 -102 -176 -296 -235
-360 -93 -100 -154 -216 -182 -346 -11 -53 -14 -272 -14 -1196 0 -769 3 -1149
11 -1190 26 -141 105 -281 215 -382 38 -35 85 -77 104 -95 47 -43 127 -208
189 -388 27 -81 56 -160 64 -175 21 -41 76 -90 118 -108 116 -48 1055 -69
1489 -33 314 26 333 40 421 305 53 160 143 353 183 394 13 13 50 45 84 71 110
86 203 236 237 379 9 38 15 113 15 191 0 116 2 127 18 127 10 0 28 10 40 23
22 23 22 28 22 371 l0 347 -25 24 c-13 14 -31 25 -40 25 -12 0 -15 14 -15 78
l0 79 39 12 c56 16 135 91 168 159 l28 57 0 235 0 235 -28 57 c-33 67 -99 130
-163 154 l-44 17 0 92 c0 184 -65 343 -200 490 -59 64 -177 247 -229 354 -22
46 -63 152 -91 236 -86 259 -109 276 -405 300 -178 15 -843 27 -995 19z m1024
-187 c121 -12 142 -17 157 -36 10 -12 39 -85 65 -164 26 -78 66 -182 89 -232
l41 -90 -1022 0 -1022 0 39 78 c22 42 62 143 89 225 60 177 66 188 99 201 14
5 103 15 196 21 94 6 181 13 195 15 68 9 948 -5 1074 -18z m276 -687 c98 -15
222 -80 296 -154 74 -74 139 -198 154 -296 6 -41 10 -468 10 -1145 0 -1198 2
-1156 -66 -1294 -64 -131 -187 -231 -339 -278 -56 -17 -116 -18 -1000 -18
l-940 0 -73 24 c-159 52 -286 169 -348 322 -43 105 -45 187 -42 1324 3 1002 5
1074 22 1125 65 199 221 342 416 384 53 12 231 15 955 15 553 1 915 -3 955 -9z
m676 -862 c11 -20 14 -74 14 -218 0 -201 -4 -223 -49 -264 l-21 -19 0 283 0
283 21 -19 c12 -10 27 -31 35 -46z m-661 -2533 c-12 -27 -41 -108 -65 -180
-53 -162 -62 -180 -97 -193 -130 -50 -1466 -50 -1594 -1 -33 13 -39 24 -99
202 -28 81 -59 165 -69 185 l-19 37 983 0 983 0 -23 -50z"/>
<path d="M1425 1695 c-23 -22 -25 -31 -25 -124 0 -110 10 -143 47 -160 39 -18
63 -13 95 19 l30 30 -4 111 c-3 102 -5 112 -27 130 -33 27 -86 25 -116 -6z"/>
<path d="M1815 1695 c-23 -22 -25 -31 -25 -124 0 -55 5 -111 11 -124 11 -25
47 -47 74 -47 27 0 63 22 74 47 6 13 11 69 11 124 0 93 -2 102 -25 124 -16 17
-35 25 -60 25 -25 0 -44 -8 -60 -25z"/>
<path d="M2209 1701 c-22 -18 -24 -28 -27 -130 l-4 -111 30 -30 c32 -32 56
-37 95 -19 37 17 47 50 47 160 0 93 -2 102 -25 124 -30 31 -83 33 -116 6z"/>
<path d="M2599 1701 c-22 -18 -24 -28 -27 -130 l-4 -111 30 -30 c32 -32 56
-37 95 -19 37 17 47 50 47 158 0 84 -3 102 -21 125 -26 32 -84 36 -120 7z"/>
<path d="M2990 1700 c-27 -27 -33 -56 -29 -161 4 -86 6 -92 33 -116 24 -20 36
-24 65 -19 60 9 71 33 71 156 0 93 -3 111 -21 134 -26 33 -88 37 -119 6z"/>
<path d="M3381 1701 c-26 -26 -34 -76 -29 -173 4 -74 7 -84 33 -106 23 -19 36
-23 64 -18 60 9 71 33 71 156 0 93 -3 111 -21 134 -26 33 -88 37 -118 7z"/>
<path d="M3770 1700 c-18 -18 -20 -33 -20 -139 0 -118 0 -120 27 -141 21 -17
36 -20 63 -16 60 9 70 32 70 160 0 105 -2 114 -23 134 -30 29 -89 30 -117 2z"/>
</g>
</svg>
