<?xml version="1.0" standalone="no"?>
<!DOCTYPE svg PUBLIC "-//W3C//DTD SVG 20010904//EN"
 "http://www.w3.org/TR/2001/REC-SVG-20010904/DTD/svg10.dtd">
<svg version="1.0" xmlns="http://www.w3.org/2000/svg"
 width="500.000000pt" height="500.000000pt" viewBox="0 0 500.000000 500.000000"
 preserveAspectRatio="xMidYMid meet">
<metadata>
Created by potrace 1.15, written by Peter Selinger 2001-2017
</metadata>
<g transform="translate(0.000000,500.000000) scale(0.100000,-0.100000)"
fill="#000000" stroke="none">
<path d="M1785 3725 c594 -591 1085 -1074 1090 -1075 6 0 144 134 308 298
l298 298 -1298 750 c-714 412 -1322 761 -1352 777 -30 15 -70 27 -90 27 -35
-1 -6 -31 1044 -1075z"/>
<path d="M511 4669 c-13 -37 -15 -4320 -2 -4353 7 -19 273 241 2001 1960 l234
233 -1098 1093 c-604 601 -1104 1094 -1111 1096 -7 2 -18 -11 -24 -29z"/>
<path d="M3333 2827 l-321 -322 319 -314 c231 -226 323 -311 335 -307 49 19
794 453 823 480 41 38 71 99 71 146 0 45 -30 108 -66 142 -16 14 -198 124
-404 243 -206 119 -389 225 -405 235 l-31 19 -321 -322z"/>
<path d="M1775 1285 c-976 -971 -1087 -1084 -1060 -1084 17 0 48 8 70 18 22
10 384 217 805 461 421 243 988 571 1260 728 272 156 526 302 564 324 l69 40
-299 299 c-164 165 -303 299 -309 299 -5 -1 -500 -489 -1100 -1085z"/>
</g>
</svg>
