<?xml version="1.0" standalone="no"?>
<!DOCTYPE svg PUBLIC "-//W3C//DTD SVG 20010904//EN"
 "http://www.w3.org/TR/2001/REC-SVG-20010904/DTD/svg10.dtd">
<svg version="1.0" xmlns="http://www.w3.org/2000/svg"
 width="1438.000000pt" height="1202.000000pt" viewBox="0 0 1438.000000 1202.000000"
 preserveAspectRatio="xMidYMid meet">
<metadata>
Created by potrace 1.15, written by Peter Selinger 2001-2017
</metadata>
<g transform="translate(0.000000,1202.000000) scale(0.100000,-0.100000)"
fill="#000000" stroke="none">
<path d="M7125 11991 c-114 -65 -175 -172 -175 -305 0 -80 11 -123 47 -176 12
-19 23 -43 23 -53 0 -11 -29 -78 -64 -151 -68 -140 -109 -227 -148 -316 -26
-58 -430 -927 -451 -970 -12 -24 -17 -25 -127 -30 -97 -5 -124 -10 -174 -33
-74 -34 -95 -34 -170 2 -76 36 -267 122 -731 329 -198 88 -389 173 -425 190
-36 16 -128 58 -205 92 -77 35 -177 80 -223 101 -45 22 -89 39 -97 39 -8 0
-24 9 -35 20 -17 17 -20 33 -20 103 0 141 -57 267 -167 367 -98 90 -208 130
-354 130 -216 0 -397 -123 -479 -325 -23 -54 -25 -74 -25 -200 l1 -140 38 -78
c67 -138 176 -231 322 -277 73 -22 189 -26 263 -9 74 17 183 73 239 123 l52
48 48 -22 c26 -12 128 -58 227 -102 99 -44 254 -114 345 -155 188 -86 530
-239 860 -385 124 -55 228 -103 232 -106 3 -4 -5 -34 -19 -66 -34 -82 -43
-245 -18 -331 9 -33 26 -74 36 -92 15 -24 18 -37 10 -50 -5 -10 -223 -231
-483 -491 l-474 -473 -27 21 c-39 31 -172 87 -253 107 -47 11 -110 16 -194 16
-183 0 -310 -38 -459 -137 -83 -56 -198 -172 -230 -232 -13 -25 -30 -48 -37
-51 -11 -4 -217 85 -574 250 -98 45 -348 159 -580 263 -102 46 -190 91 -196
99 -6 8 -14 50 -16 93 -13 188 -158 339 -358 372 -189 32 -379 -66 -460 -236
-79 -164 -50 -367 69 -497 48 -51 151 -109 230 -127 111 -26 282 13 353 81 23
21 48 39 56 39 8 0 89 -34 181 -77 91 -42 213 -97 271 -123 102 -46 342 -155
738 -335 l193 -88 -7 -71 c-8 -87 15 -244 50 -340 31 -84 97 -196 148 -252 21
-23 38 -45 38 -50 0 -5 -76 -122 -170 -259 -93 -138 -249 -368 -346 -513
l-177 -262 -37 0 c-214 0 -355 -152 -338 -364 9 -112 75 -208 175 -257 66 -33
192 -39 265 -13 65 24 145 96 178 160 33 66 39 174 14 256 -11 39 -14 64 -8
73 5 7 59 85 119 174 61 89 200 294 310 455 110 162 216 313 237 337 l36 43
79 -26 c207 -70 431 -53 638 48 43 22 103 61 132 88 46 42 57 47 76 39 12 -6
90 -59 172 -118 83 -60 164 -118 180 -129 266 -185 439 -314 446 -333 5 -15 3
-34 -6 -57 -21 -51 -19 -191 4 -274 28 -103 67 -170 140 -242 112 -111 234
-160 401 -160 96 0 168 17 244 55 125 63 208 151 260 272 35 82 43 93 66 93 9
0 39 8 66 19 27 10 141 46 254 80 113 34 261 80 330 101 69 21 186 57 260 80
150 46 238 74 320 100 92 30 310 97 405 125 50 15 112 35 139 46 55 22 68 17
99 -33 50 -82 158 -178 252 -226 206 -103 439 -105 637 -6 86 43 118 53 118
35 0 -5 113 -114 252 -242 139 -129 286 -266 328 -305 41 -39 109 -102 151
-139 l76 -67 6 -93 c4 -73 11 -103 32 -145 39 -77 105 -143 178 -176 56 -26
72 -29 167 -29 98 0 109 2 172 33 77 38 138 100 176 182 21 47 25 70 26 155 0
89 -3 107 -27 159 -56 122 -144 191 -275 217 -80 15 -188 -1 -250 -37 l-43
-25 -142 133 c-78 73 -201 187 -272 253 -72 66 -168 156 -215 200 -47 44 -103
94 -125 112 -40 31 -40 32 -26 65 81 200 97 318 66 483 -44 234 -159 385 -368
484 -48 22 -98 41 -111 41 -61 0 -56 -86 -56 1055 l0 1043 31 6 c17 3 59 24
93 47 47 31 64 38 76 30 24 -17 163 -101 320 -193 80 -47 233 -137 340 -201
225 -132 533 -314 734 -431 82 -48 150 -95 167 -116 16 -19 306 -424 645 -900
339 -476 625 -874 636 -886 15 -17 19 -39 21 -115 4 -134 29 -179 131 -233
117 -62 271 -14 331 104 20 39 25 65 25 120 0 81 -14 116 -69 173 -44 47 -80
67 -121 67 -21 0 -41 10 -64 33 -19 17 -298 403 -622 857 -323 454 -598 837
-612 852 -13 14 -21 31 -17 38 9 15 86 86 164 151 198 166 323 272 859 732 69
59 133 107 143 107 9 0 41 -11 71 -25 92 -43 252 -31 356 27 191 105 260 367
152 578 -32 62 -116 139 -189 173 -60 28 -75 30 -176 31 -104 1 -114 -1 -178
-31 -173 -82 -257 -231 -243 -435 4 -51 3 -98 -1 -103 -4 -6 -24 -22 -45 -37
-20 -15 -42 -33 -50 -41 -7 -7 -56 -48 -108 -92 -86 -73 -340 -289 -415 -354
-17 -14 -59 -51 -95 -81 -36 -30 -70 -59 -76 -65 -97 -87 -380 -321 -390 -323
-8 -2 -43 14 -77 36 -52 34 -484 289 -762 452 -44 25 -181 106 -305 180 -124
73 -250 147 -280 163 -90 49 -89 48 -83 136 6 88 -10 159 -57 250 -67 129
-182 208 -340 232 -98 15 -181 3 -282 -43 -77 -35 -50 -46 -209 83 -52 41
-170 136 -264 210 -93 74 -237 189 -320 254 -82 65 -235 187 -340 270 -104 83
-213 168 -241 188 l-52 37 -4 98 c-5 114 -29 172 -101 242 -66 65 -111 79
-247 79 -109 1 -118 -1 -165 -28z m396 -658 c70 -58 130 -105 357 -284 42 -34
86 -68 97 -77 61 -50 692 -551 745 -592 25 -19 47 -37 50 -40 3 -3 17 -13 33
-23 27 -17 27 -18 27 -137 0 -188 28 -275 117 -371 43 -47 131 -97 196 -113
l27 -6 0 -1034 c0 -1148 5 -1066 -66 -1066 -19 0 -52 -10 -74 -22 l-38 -23
-59 55 c-32 30 -265 233 -517 450 -479 412 -790 680 -1261 1086 -154 133 -293
252 -309 266 -24 21 -30 35 -42 116 -16 112 -67 217 -144 302 -52 56 -55 68
-25 115 6 11 69 144 140 295 70 151 164 351 208 445 44 93 106 226 137 295 97
208 103 222 140 295 l35 70 50 5 c28 3 59 11 70 17 34 20 58 15 106 -24z
m-578 -2405 c122 -106 258 -224 302 -262 45 -39 110 -96 145 -126 35 -30 100
-87 145 -125 44 -39 127 -111 185 -160 58 -50 107 -92 110 -95 3 -3 70 -62
150 -130 80 -69 147 -127 150 -130 3 -3 70 -62 150 -130 80 -69 161 -139 180
-156 19 -17 90 -79 158 -138 67 -59 122 -111 122 -116 0 -5 -11 -21 -25 -36
-34 -37 -93 -157 -106 -219 -6 -27 -13 -90 -16 -140 -5 -100 -16 -120 -67
-130 -28 -6 -168 -48 -341 -104 -33 -11 -202 -63 -375 -115 -173 -53 -342
-105 -375 -116 -33 -11 -163 -51 -290 -90 -126 -39 -254 -80 -283 -91 -61 -25
-74 -19 -93 39 -43 131 -180 261 -329 313 -141 48 -334 32 -443 -37 -100 -63
-88 -63 -169 -3 -40 30 -220 160 -400 288 -180 129 -330 242 -334 253 -3 10
-1 24 4 31 5 7 20 41 33 77 21 59 23 81 23 240 l0 175 -35 96 c-20 53 -51 117
-68 143 l-32 46 20 28 c34 46 936 942 949 942 7 0 41 -14 75 -32 60 -31 66
-32 187 -32 107 0 134 3 190 24 105 38 210 114 254 183 10 15 20 27 22 27 2 0
104 -86 227 -192z"/>
<path d="M8995 4971 c-3 -6 -5 -249 -4 -541 0 -292 -1 -534 -4 -536 -3 -3 -8
4 -12 15 -3 11 -44 56 -91 101 -67 63 -106 90 -177 124 -155 75 -225 90 -417
90 -146 -1 -176 -4 -264 -27 -303 -81 -528 -292 -624 -584 -40 -121 -47 -174
-46 -353 1 -156 4 -186 28 -273 52 -193 160 -365 302 -478 168 -134 367 -199
602 -198 186 0 306 28 445 101 83 45 186 135 222 195 18 29 35 50 38 46 4 -3
7 -74 7 -158 0 -104 4 -155 12 -163 14 -14 225 -17 246 -4 10 7 12 279 10
1328 l-3 1319 -132 3 c-80 1 -134 -1 -138 -7z m-567 -991 c154 -25 322 -127
417 -253 110 -147 147 -262 148 -457 0 -191 -37 -307 -145 -452 -63 -85 -196
-187 -287 -221 -187 -69 -395 -58 -566 31 -90 47 -238 192 -277 272 -75 154
-92 233 -85 403 5 146 25 226 80 332 43 81 192 230 272 272 142 73 290 97 443
73z"/>
<path d="M9979 4951 c-57 -35 -79 -80 -79 -158 0 -73 30 -128 85 -161 55 -32
166 -27 220 9 47 32 75 91 75 158 0 59 -15 94 -57 132 -43 41 -66 49 -135 49
-53 0 -72 -5 -109 -29z"/>
<path d="M12652 3653 l3 -1328 130 0 130 0 5 550 c6 602 9 635 69 767 100 223
337 350 622 335 216 -11 371 -108 449 -281 56 -124 60 -172 60 -796 0 -509 2
-568 16 -574 20 -8 208 -8 228 0 14 6 16 71 16 643 0 605 -1 640 -20 721 -33
137 -89 240 -179 329 -131 131 -290 194 -521 207 -276 15 -502 -64 -667 -234
l-73 -75 0 532 0 531 -135 0 -135 0 2 -1327z"/>
<path d="M835 4854 c-16 -2 -66 -9 -110 -15 -237 -31 -450 -136 -554 -274 -56
-74 -108 -185 -122 -260 -6 -34 -9 -114 -7 -185 4 -106 9 -136 33 -200 25 -66
39 -86 114 -161 142 -142 276 -201 716 -314 349 -90 448 -132 555 -232 82 -76
106 -132 103 -241 -5 -193 -153 -342 -398 -398 -120 -28 -406 -26 -530 4 -193
46 -378 130 -471 215 -28 26 -61 47 -72 47 -14 0 -30 -19 -56 -69 -29 -55 -36
-80 -36 -125 l0 -55 91 -61 c109 -74 184 -109 332 -155 179 -55 270 -69 462
-69 190 -1 308 13 439 50 248 70 420 220 489 425 42 125 41 326 -3 441 -46
121 -148 225 -300 306 -105 56 -200 87 -545 178 -174 45 -198 52 -278 78 -273
90 -397 238 -367 434 29 184 172 317 395 369 122 28 379 25 500 -5 149 -38
251 -77 331 -130 37 -24 61 -33 84 -30 29 3 34 9 71 92 21 48 39 94 39 100 0
48 -239 161 -420 199 -160 34 -396 54 -485 41z"/>
<path d="M5976 4220 c-236 -38 -437 -150 -570 -321 -144 -183 -214 -418 -202
-674 9 -207 52 -351 147 -495 178 -271 464 -420 809 -420 150 0 283 16 369 45
70 24 202 90 247 124 66 51 144 127 144 140 -1 24 -128 171 -148 171 -10 0
-41 -22 -70 -49 -70 -66 -175 -122 -292 -156 -83 -25 -111 -28 -220 -28 -143
1 -237 21 -341 74 -183 92 -299 236 -353 438 -14 52 -23 98 -20 102 3 5 357 9
786 9 l781 0 -6 143 c-9 209 -53 355 -154 510 -159 247 -407 382 -718 392 -71
2 -157 0 -189 -5z m280 -241 c32 -5 101 -30 152 -55 165 -80 285 -218 338
-391 13 -43 24 -93 24 -111 l0 -32 -642 2 -643 3 -3 28 c-6 50 51 201 109 287
59 88 178 190 266 227 117 48 273 65 399 42z"/>
<path d="M11310 4220 c-270 -30 -460 -143 -546 -324 -32 -67 -37 -90 -42 -171
-11 -208 47 -330 205 -431 93 -60 186 -89 465 -145 344 -68 444 -108 505 -201
22 -33 27 -51 27 -106 0 -77 -21 -128 -76 -178 -91 -85 -180 -109 -398 -109
-241 1 -392 39 -581 150 -43 25 -85 45 -93 45 -18 0 -25 -10 -75 -104 -57
-108 -55 -119 41 -172 206 -113 424 -163 713 -164 353 0 620 130 711 346 26
63 28 80 29 194 0 160 -16 208 -99 298 -98 105 -235 160 -551 222 -325 63
-408 92 -483 167 -83 83 -94 195 -28 290 70 102 190 152 382 161 142 5 257 -9
364 -45 82 -28 185 -77 212 -100 9 -8 22 -13 28 -11 21 7 100 170 100 205 0
33 -3 36 -72 67 -83 38 -209 77 -318 100 -90 19 -316 28 -420 16z"/>
<path d="M2003 4181 c2 -21 102 -296 220 -612 119 -316 266 -707 327 -869 136
-365 138 -369 164 -376 12 -2 68 -4 126 -2 l105 3 17 35 c10 19 29 64 42 100
13 36 46 124 74 195 28 72 79 207 115 300 36 94 90 235 121 315 32 80 78 199
103 265 96 250 109 280 124 280 8 0 15 -12 17 -29 3 -25 112 -316 258 -691 63
-160 80 -205 199 -515 47 -124 90 -232 94 -240 7 -12 33 -15 137 -15 l128 0
19 55 c11 30 39 107 63 170 25 63 58 149 73 190 16 41 61 161 101 265 194 516
391 1038 419 1108 17 43 31 84 31 92 0 12 -22 15 -128 15 l-127 0 -13 -42
c-13 -40 -368 -995 -451 -1213 -38 -98 -99 -265 -108 -295 -4 -12 -6 -12 -15
3 -12 22 -548 1444 -563 1494 -13 47 -30 53 -141 53 l-104 0 -21 -42 c-12 -24
-46 -106 -75 -183 -29 -77 -81 -216 -117 -310 -35 -93 -114 -305 -176 -470
-61 -165 -120 -320 -131 -345 -10 -25 -33 -82 -51 -127 -29 -77 -49 -104 -49
-68 0 18 -22 79 -160 455 -23 63 -57 156 -75 205 -18 50 -69 189 -114 310 -93
249 -201 544 -207 563 -2 9 -37 12 -130 12 l-127 0 6 -39z"/>
<path d="M9952 3273 l3 -948 128 -2 c124 -3 128 -2 135 20 4 12 5 438 2 947
l-5 925 -133 3 -132 3 2 -948z"/>
<path d="M10165 1814 c-88 -22 -117 -38 -163 -89 -57 -62 -73 -110 -78 -230
-2 -44 -3 -83 -4 -87 0 -5 -35 -8 -78 -8 -75 0 -79 -1 -90 -25 -16 -34 -15
-102 1 -112 6 -4 46 -8 87 -8 l75 0 5 -435 c3 -239 9 -441 14 -449 6 -10 22
-12 59 -7 72 10 88 21 86 59 -2 18 -2 214 -1 436 l2 403 133 -2 c72 -2 140 -2
150 -1 14 1 17 11 17 66 0 61 -1 65 -26 71 -15 4 -82 4 -150 1 l-124 -5 -6 24
c-8 33 4 130 23 176 28 70 113 101 203 74 98 -29 129 -20 137 41 5 35 2 43
-22 61 -15 12 -44 26 -64 32 -46 12 -160 20 -186 14z"/>
<path d="M10732 1799 c-54 -16 -79 -98 -47 -158 18 -35 32 -41 101 -41 75 0
94 20 94 100 0 67 -18 93 -72 104 -35 7 -33 7 -76 -5z"/>
<path d="M6983 1728 c-11 -18 -16 -1290 -5 -1331 10 -35 14 -36 110 -22 l42 6
0 512 0 512 33 -60 c18 -33 73 -127 121 -210 49 -82 127 -215 174 -295 164
-280 187 -315 207 -318 28 -4 82 56 141 158 28 47 133 228 235 402 l184 317 5
-504 c5 -477 6 -504 24 -524 33 -36 88 -26 111 20 13 24 15 126 15 673 l0 645
-22 15 c-35 25 -80 20 -110 -11 -14 -16 -61 -89 -103 -163 -102 -178 -121
-210 -255 -440 -63 -107 -132 -228 -154 -269 -23 -41 -45 -76 -51 -78 -8 -2
-230 367 -506 845 -42 73 -64 101 -90 114 -40 21 -94 23 -106 6z"/>
<path d="M2879 1663 c-17 -38 -80 -174 -139 -303 -59 -129 -119 -260 -133
-290 -14 -30 -71 -156 -127 -280 -56 -124 -113 -247 -127 -275 -16 -32 -26
-67 -27 -100 l-1 -50 49 -3 c42 -3 53 1 79 25 28 26 85 137 136 265 13 31 29
59 36 62 7 2 171 6 365 7 291 2 353 0 364 -12 7 -8 34 -66 61 -129 82 -194
107 -223 181 -218 l49 3 3 40 c3 41 -12 76 -275 650 -111 242 -166 363 -230
505 -36 80 -69 151 -75 158 -7 7 -37 12 -84 12 l-73 0 -32 -67z m129 -175
c180 -397 272 -607 272 -619 0 -6 -106 -9 -300 -8 l-300 1 15 27 c8 14 34 71
59 126 24 55 74 168 111 250 68 151 90 201 106 243 5 12 11 22 13 22 3 0 14
-19 24 -42z"/>
<path d="M3860 1381 c-6 -13 -10 -250 -10 -700 l0 -681 74 0 c68 0 74 2 80 23
3 12 6 132 6 267 l1 245 37 -42 c47 -52 120 -96 197 -119 80 -23 235 -15 320
17 155 57 243 151 301 319 26 76 26 261 0 340 -32 96 -67 153 -130 215 -51 50
-77 66 -151 95 -86 33 -96 35 -210 34 -99 0 -130 -4 -175 -22 -69 -28 -147
-84 -168 -123 -10 -16 -20 -29 -24 -29 -5 0 -8 36 -8 80 0 77 -1 81 -26 90
-44 17 -102 12 -114 -9z m610 -137 c68 -20 115 -50 168 -108 70 -76 86 -122
87 -251 0 -99 -3 -116 -27 -167 -35 -76 -95 -138 -170 -179 -58 -30 -70 -33
-153 -33 -77 -1 -98 3 -147 26 -126 59 -205 172 -215 310 -15 193 92 355 267
409 43 13 134 10 190 -7z"/>
<path d="M5154 1387 c-8 -22 -8 -61 -6 -739 l2 -648 75 0 75 0 0 267 0 267 53
-51 c31 -31 80 -65 122 -85 68 -32 74 -33 195 -33 111 0 133 4 199 28 151 55
253 171 295 334 21 80 21 242 0 314 -44 149 -153 273 -285 322 -193 72 -411
34 -538 -94 l-50 -50 6 55 c3 30 3 70 -1 90 l-7 36 -65 0 c-45 0 -66 -4 -70
-13z m657 -160 c104 -46 175 -132 205 -247 21 -84 14 -188 -20 -264 -32 -71
-110 -150 -184 -184 -49 -23 -69 -27 -147 -26 -76 1 -99 6 -150 30 -79 37
-147 108 -175 181 -74 197 -23 374 142 491 79 57 225 65 329 19z"/>
<path d="M8993 1390 c-110 -20 -273 -102 -273 -138 0 -11 10 -34 23 -53 28
-43 77 -51 111 -20 12 12 51 33 87 48 55 23 78 27 169 28 98 0 109 -2 160 -30
75 -42 111 -100 118 -195 5 -68 4 -70 -19 -71 -13 0 -76 0 -139 1 -322 2 -454
-43 -516 -175 -48 -102 -22 -259 54 -326 20 -18 65 -46 101 -63 63 -29 72 -30
196 -30 121 -1 135 1 197 27 45 20 76 40 94 64 23 31 28 33 36 18 6 -9 7 -32
4 -50 -6 -32 -5 -33 41 -49 63 -21 90 -20 103 5 8 14 10 132 8 382 -3 349 -4
364 -26 419 -57 143 -168 207 -367 214 -60 1 -133 -1 -162 -6z m392 -560 c3
-6 7 -38 8 -73 1 -78 -22 -127 -92 -189 -115 -103 -330 -104 -423 -1 -9 10
-22 39 -29 64 -11 43 -10 50 12 95 43 88 118 111 376 113 86 1 144 -3 148 -9z"/>
<path d="M10712 1388 c-17 -17 -17 -959 -1 -991 17 -31 28 -37 77 -37 37 0 44
3 53 27 14 38 21 984 7 1001 -13 16 -120 16 -136 0z"/>
<path d="M11455 1394 c-83 -13 -222 -70 -262 -107 -42 -38 -20 -127 32 -127
12 0 57 17 98 38 97 50 176 67 270 58 89 -8 151 -38 194 -94 34 -45 59 -136
49 -178 -6 -24 -7 -24 -149 -24 -278 -1 -406 -27 -478 -99 -56 -57 -73 -103
-74 -201 0 -139 45 -203 191 -269 43 -19 69 -23 170 -24 170 -3 266 31 321
111 l22 33 7 -70 c3 -39 12 -72 18 -74 28 -11 107 6 117 25 7 12 9 146 7 381
l-3 362 -29 63 c-36 78 -105 143 -183 172 -43 16 -86 22 -172 25 -64 2 -129 1
-146 -1z m380 -617 c9 -85 -16 -146 -86 -206 -64 -55 -131 -81 -210 -81 -92 0
-144 17 -197 65 -47 43 -47 43 -47 108 0 61 2 68 34 101 56 58 123 72 348 75
l151 1 7 -63z"/>
</g>
</svg>
