<?xml version="1.0" standalone="no"?>
<!DOCTYPE svg PUBLIC "-//W3C//DTD SVG 20010904//EN"
 "http://www.w3.org/TR/2001/REC-SVG-20010904/DTD/svg10.dtd">
<svg version="1.0" xmlns="http://www.w3.org/2000/svg"
 width="500.000000pt" height="500.000000pt" viewBox="0 0 500.000000 500.000000"
 preserveAspectRatio="xMidYMid meet">
<metadata>
Created by potrace 1.15, written by Peter Selinger 2001-2017
</metadata>
<g transform="translate(0.000000,500.000000) scale(0.100000,-0.100000)"
fill="#000000" stroke="none">
<path d="M3162 4975 c-242 -63 -489 -231 -644 -439 -72 -96 -159 -272 -190
-381 -18 -65 -22 -106 -23 -222 0 -122 -2 -142 -15 -138 -8 2 -35 9 -60 14
-25 6 -79 22 -120 36 -201 69 -367 92 -535 75 -142 -14 -257 -49 -400 -120
-333 -164 -595 -472 -704 -825 -55 -179 -74 -314 -74 -545 -1 -555 166 -1072
518 -1600 174 -260 312 -411 474 -515 133 -85 232 -115 387 -115 126 0 209 20
383 94 178 77 236 89 406 90 166 1 211 -10 397 -89 179 -77 251 -95 373 -95
157 0 259 33 401 131 235 163 526 552 737 987 116 239 113 261 -40 332 -104
48 -161 88 -247 169 -126 122 -215 274 -258 447 -31 123 -30 323 1 439 58 216
193 400 381 520 94 60 109 79 110 132 0 36 -7 51 -48 100 -213 256 -525 429
-831 463 -164 18 -382 -9 -555 -69 -79 -28 -80 -27 -17 15 197 133 374 383
446 630 57 197 58 432 0 481 -35 31 -128 30 -253 -2z m58 -264 c0 -136 -79
-348 -180 -483 -102 -135 -297 -255 -479 -293 l-34 -7 6 70 c18 186 127 407
259 527 86 78 230 162 352 205 73 26 76 26 76 -19z m-1333 -1021 c43 -10 159
-46 258 -80 351 -118 482 -119 800 0 173 64 262 87 388 101 260 29 538 -75
767 -287 l60 -56 -48 -37 c-226 -180 -372 -435 -411 -715 -35 -253 29 -527
176 -749 71 -107 203 -239 308 -308 49 -32 98 -64 107 -71 16 -12 13 -23 -45
-143 -148 -303 -383 -633 -562 -786 -83 -71 -209 -136 -285 -147 -104 -14
-176 1 -343 72 -180 77 -282 103 -427 112 -189 11 -357 -21 -556 -106 -156
-67 -205 -80 -295 -81 -126 -1 -208 31 -338 129 -201 153 -477 557 -627 919
-127 306 -191 592 -201 903 -15 468 99 789 376 1053 166 159 373 265 576 297
80 12 226 3 322 -20z"/>
</g>
</svg>
