<?xml version="1.0" standalone="no"?>
<!DOCTYPE svg PUBLIC "-//W3C//DTD SVG 20010904//EN"
 "http://www.w3.org/TR/2001/REC-SVG-20010904/DTD/svg10.dtd">
<svg version="1.0" xmlns="http://www.w3.org/2000/svg"
 width="550.000000pt" height="550.000000pt" viewBox="0 0 550.000000 550.000000"
 preserveAspectRatio="xMidYMid meet">
<metadata>
Created by potrace 1.15, written by Peter Selinger 2001-2017
</metadata>
<g transform="translate(0.000000,550.000000) scale(0.100000,-0.100000)"
fill="#000000" stroke="none">
<path d="M3690 5438 c-82 -11 -247 -66 -337 -112 -193 -97 -379 -256 -486
-417 -72 -110 -150 -272 -178 -374 -22 -83 -38 -317 -25 -371 l7 -27 82 7
c489 41 919 462 1012 990 21 120 18 319 -4 315 -3 -1 -35 -6 -71 -11z"/>
<path d="M1720 4179 c-314 -22 -640 -195 -890 -474 -241 -269 -361 -575 -391
-1001 -35 -479 91 -1055 338 -1548 200 -399 498 -793 716 -947 156 -110 271
-151 427 -151 137 0 203 16 408 101 249 104 373 128 587 118 179 -9 254 -31
535 -152 115 -49 194 -66 314 -66 108 0 196 20 286 66 140 72 328 244 471 430
102 133 293 425 361 552 85 156 191 387 180 391 -6 2 -47 21 -91 42 -351 170
-592 498 -656 893 -43 264 12 548 150 776 89 148 209 270 368 373 42 28 77 55
77 60 0 18 -229 236 -307 291 -155 110 -346 196 -520 232 -101 22 -336 22
-453 1 -105 -19 -201 -48 -395 -119 -191 -69 -274 -88 -395 -88 -129 0 -210
18 -454 101 -323 110 -451 133 -666 119z"/>
</g>
</svg>
