<?xml version="1.0" standalone="no"?>
<!DOCTYPE svg PUBLIC "-//W3C//DTD SVG 20010904//EN"
 "http://www.w3.org/TR/2001/REC-SVG-20010904/DTD/svg10.dtd">
<svg version="1.0" xmlns="http://www.w3.org/2000/svg"
 width="500.000000pt" height="500.000000pt" viewBox="0 0 500.000000 500.000000"
 preserveAspectRatio="xMidYMid meet">
<metadata>
Created by potrace 1.15, written by Peter Selinger 2001-2017
</metadata>
<g transform="translate(0.000000,500.000000) scale(0.100000,-0.100000)"
fill="#000000" stroke="none">
<path d="M3556 4594 c-113 -21 -243 -66 -381 -133 -144 -71 -263 -154 -368
-258 -238 -236 -298 -486 -205 -866 l22 -88 -212 -212 -212 -212 -450 450
-449 450 -26 125 c-15 69 -35 139 -46 156 -23 37 -596 413 -648 425 -76 17
-125 -7 -229 -114 -109 -113 -124 -165 -74 -258 32 -60 344 -543 370 -573 24
-27 64 -41 193 -71 l114 -26 452 -452 453 -452 -262 -262 -263 -263 -100 0
c-318 0 -606 -183 -755 -479 -106 -211 -110 -516 -10 -737 103 -228 308 -405
552 -475 94 -27 271 -36 374 -20 238 39 446 172 580 373 91 137 133 267 141
445 l6 121 163 163 c90 90 165 161 166 159 2 -3 15 -30 31 -60 22 -45 130
-159 595 -622 659 -659 613 -623 797 -623 159 0 186 15 376 202 82 81 163 168
178 193 72 112 80 261 22 386 -30 65 -66 103 -594 631 -502 502 -569 565 -624
591 l-61 29 116 116 117 116 99 -24 c330 -81 560 -41 778 134 226 181 421 535
474 859 19 114 14 305 -10 392 -23 83 -70 110 -134 76 -15 -8 -139 -127 -277
-265 -188 -189 -256 -251 -274 -251 -39 0 -162 40 -226 73 -122 65 -232 208
-269 353 -29 113 -44 90 249 384 237 238 265 270 265 299 0 48 -34 76 -118 95
-88 20 -295 20 -406 0z m67 -346 c-110 -112 -208 -218 -218 -237 -28 -55 -30
-126 -5 -221 73 -285 247 -462 535 -546 100 -28 168 -28 226 1 19 9 125 108
237 218 l202 202 0 -71 c0 -137 -57 -349 -135 -504 -90 -178 -242 -360 -361
-433 -107 -64 -172 -81 -314 -82 -113 0 -139 4 -272 38 -136 36 -149 37 -175
23 -15 -8 -335 -322 -710 -698 l-683 -684 0 -125 c0 -149 -21 -244 -75 -348
-162 -308 -520 -450 -847 -337 -103 36 -173 82 -263 171 -280 278 -271 717 19
993 139 132 315 196 522 190 l104 -3 696 696 696 697 -4 43 c-3 24 -18 91 -34
149 -26 94 -29 120 -29 255 1 170 12 213 85 323 174 260 609 485 950 491 l54
1 -201 -202z m-2698 -228 c88 -57 161 -104 162 -105 1 0 12 -45 24 -99 l21
-98 -80 -81 -80 -80 -101 23 -101 23 -175 271 -176 270 62 62 62 62 111 -72
c61 -40 183 -119 271 -176z m728 -888 l427 -427 -50 -50 -50 -50 -430 430
-430 430 47 47 c26 27 50 48 53 48 3 0 198 -192 433 -428z m1499 -1067 c51
-26 1122 -1101 1148 -1153 12 -24 22 -64 22 -90 2 -90 -14 -117 -166 -270 -77
-79 -159 -153 -181 -165 -55 -29 -145 -29 -200 0 -23 13 -270 253 -596 580
-477 479 -557 564 -567 599 -25 88 -30 81 201 312 l212 214 47 -6 c26 -3 62
-12 80 -21z"/>
<path d="M3025 3535 c-18 -17 -25 -35 -25 -62 0 -36 13 -50 293 -330 250 -251
297 -294 328 -299 50 -8 93 28 93 80 0 35 -15 52 -300 337 -270 270 -303 299
-332 299 -22 0 -41 -9 -57 -25z"/>
<path d="M2823 2890 c-28 -12 -43 -40 -43 -83 0 -29 11 -44 79 -110 64 -63 84
-77 110 -77 45 0 81 38 81 86 0 32 -9 46 -72 110 -75 76 -110 93 -155 74z"/>
<path d="M2525 2595 c-46 -45 -35 -77 54 -168 69 -71 83 -81 115 -81 64 0 102
63 72 122 -8 15 -44 56 -81 90 -76 72 -117 81 -160 37z"/>
<path d="M2257 2329 c-10 -6 -22 -22 -28 -36 -16 -43 6 -86 82 -157 58 -56 75
-66 105 -66 46 0 84 37 84 81 0 26 -14 46 -77 110 -68 70 -81 79 -112 79 -20
0 -44 -5 -54 -11z"/>
<path d="M1993 2060 c-28 -11 -43 -40 -43 -81 0 -45 128 -177 180 -185 53 -9
90 24 90 80 0 40 -5 47 -79 119 -80 78 -99 87 -148 67z"/>
<path d="M1695 1765 c-45 -44 -35 -77 52 -166 72 -74 79 -79 119 -79 35 0 47
5 64 27 37 48 23 86 -63 171 -65 63 -79 72 -111 72 -26 0 -44 -7 -61 -25z"/>
<path d="M1145 1480 c-202 -56 -199 -55 -213 -83 -19 -37 -102 -361 -102 -397
0 -31 16 -50 148 -182 124 -124 152 -148 177 -148 51 0 397 98 417 118 26 25
123 392 114 429 -5 18 -60 81 -150 171 -170 169 -142 162 -391 92z m279 -219
l89 -89 -34 -130 -33 -129 -121 -32 c-66 -17 -125 -31 -130 -31 -6 0 -51 42
-101 93 l-92 92 35 126 35 127 112 30 c61 17 120 31 131 31 13 1 53 -32 109
-88z"/>
<path d="M3155 1755 c-18 -17 -25 -35 -25 -62 0 -36 15 -52 408 -445 386 -387
409 -408 444 -408 47 0 77 26 85 73 l6 39 -414 414 c-377 377 -417 414 -447
414 -22 0 -41 -8 -57 -25z"/>
<path d="M2953 1550 c-28 -11 -43 -40 -43 -82 0 -30 35 -68 408 -440 372 -373
410 -408 440 -408 18 0 41 4 51 10 24 12 45 64 37 92 -3 13 -189 206 -413 431
-426 424 -421 421 -480 397z"/>
</g>
</svg>
