<?xml version="1.0" standalone="no"?>
<!DOCTYPE svg PUBLIC "-//W3C//DTD SVG 20010904//EN"
 "http://www.w3.org/TR/2001/REC-SVG-20010904/DTD/svg10.dtd">
<svg version="1.0" xmlns="http://www.w3.org/2000/svg"
 width="500.000000pt" height="500.000000pt" viewBox="0 0 500.000000 500.000000"
 preserveAspectRatio="xMidYMid meet">
<metadata>
Created by potrace 1.15, written by Peter Selinger 2001-2017
</metadata>
<g transform="translate(0.000000,500.000000) scale(0.100000,-0.100000)"
fill="#000000" stroke="none">
<path d="M142 4207 c-50 -19 -98 -62 -121 -110 l-21 -43 0 -1165 0 -1165 32
-54 c45 -75 112 -110 209 -110 l69 0 0 -69 c0 -97 35 -164 110 -208 48 -29 63
-33 126 -33 l71 0 5 -79 c7 -127 66 -204 178 -231 32 -8 624 -10 2040 -8
l1995 3 40 22 c51 27 90 68 109 115 14 33 16 171 16 1193 0 1265 3 1194 -58
1258 -44 47 -100 70 -179 75 l-73 5 0 66 c0 82 -23 135 -79 182 -49 42 -98 59
-175 59 l-56 0 0 56 c0 31 -5 74 -12 95 -15 52 -73 117 -122 140 -39 18 -119
19 -2056 18 -1525 0 -2023 -3 -2048 -12z m4042 -168 l26 -20 0 -1128 0 -1128
-21 -19 c-21 -19 -70 -19 -1988 -22 -1482 -2 -1973 1 -1994 9 -16 7 -33 23
-38 36 -13 36 -12 2229 2 2254 6 11 20 24 32 29 12 5 881 9 1988 9 l1966 1 27
-21z m320 -319 c21 -20 21 -26 24 -1128 2 -828 -1 -1114 -9 -1135 -7 -16 -23
-33 -36 -38 -27 -10 -3923 -13 -3961 -3 -30 8 -52 53 -52 104 l0 40 1858 0
c1174 0 1870 4 1892 10 52 14 109 67 136 124 l24 51 0 1004 0 1004 52 -6 c33
-4 60 -14 72 -27z m315 -316 c21 -27 21 -29 21 -1141 l0 -1114 -25 -24 -24
-25 -1981 0 c-1967 0 -1980 0 -2000 20 -15 15 -20 33 -20 75 l0 55 1868 0
1868 0 54 33 c42 25 61 44 82 86 l28 53 0 1004 0 1004 54 0 c47 0 57 -4 75
-26z"/>
<path d="M1112 3887 c-20 -21 -22 -34 -22 -138 0 -108 2 -117 23 -137 30 -29
89 -30 117 -2 18 18 20 33 20 140 0 107 -2 122 -20 140 -29 29 -90 27 -118 -3z"/>
<path d="M1501 3884 c-18 -23 -21 -41 -21 -136 0 -102 1 -110 25 -133 26 -26
72 -33 105 -15 27 14 40 64 40 150 0 125 -21 160 -94 160 -25 0 -40 -7 -55
-26z"/>
<path d="M1895 3885 c-23 -22 -25 -32 -25 -119 l0 -95 -32 -22 c-414 -291
-481 -988 -133 -1394 25 -30 72 -73 105 -97 l59 -43 0 -98 c1 -90 3 -100 26
-122 26 -26 72 -33 105 -15 23 12 40 61 40 115 l0 42 113 -5 c63 -2 128 0 150
6 l37 10 0 -64 c0 -56 4 -68 25 -89 30 -31 82 -33 113 -5 20 19 22 31 22 120
l0 99 33 22 c180 126 298 318 342 555 21 109 21 302 1 404 -19 102 -67 229
-117 313 -45 76 -156 198 -219 242 l-40 28 0 98 c0 116 -13 139 -78 139 -60 0
-82 -30 -82 -112 l0 -66 -37 10 c-21 6 -88 8 -149 6 l-112 -4 -4 64 c-3 53 -8
68 -27 83 -33 27 -86 24 -116 -6z m479 -328 c157 -74 283 -244 337 -452 30
-114 30 -298 1 -417 -54 -222 -171 -382 -339 -465 -133 -66 -294 -56 -421 27
-206 133 -325 397 -309 688 7 128 27 210 77 317 78 168 197 283 345 332 25 8
76 12 135 10 87 -2 102 -6 174 -40z"/>
<path d="M2751 3884 c-18 -23 -21 -41 -21 -136 0 -102 1 -110 25 -133 26 -26
72 -33 105 -15 27 14 40 64 40 150 0 125 -21 160 -94 160 -25 0 -40 -7 -55
-26z"/>
<path d="M3145 3885 c-24 -23 -25 -31 -25 -135 0 -104 1 -112 25 -135 30 -31
83 -33 116 -6 23 18 24 25 24 141 0 116 -1 123 -24 141 -33 27 -86 25 -116 -6z"/>
<path d="M330 3810 c-13 -13 -20 -33 -20 -60 0 -27 7 -47 20 -60 19 -19 33
-20 255 -20 222 0 236 1 255 20 13 13 20 33 20 60 0 27 -7 47 -20 60 -19 19
-33 20 -255 20 -222 0 -236 -1 -255 -20z"/>
<path d="M3531 3804 c-12 -15 -21 -39 -21 -54 0 -15 9 -39 21 -54 l20 -26 238
0 c228 0 239 1 257 21 11 13 19 35 19 59 0 24 -8 46 -19 59 -18 20 -29 21
-257 21 l-238 0 -20 -26z"/>
<path d="M680 3114 c-131 -48 -212 -159 -213 -294 -1 -132 63 -237 178 -291
71 -34 171 -39 249 -13 64 22 147 100 177 166 33 73 33 193 1 259 -56 116
-150 179 -275 186 -49 2 -86 -2 -117 -13z m168 -153 c46 -24 67 -46 87 -95 42
-100 -41 -216 -155 -216 -130 0 -209 154 -133 259 24 32 98 71 136 71 15 0 44
-9 65 -19z"/>
<path d="M3515 3121 c-57 -15 -112 -50 -158 -101 -61 -67 -81 -129 -75 -229 7
-127 68 -215 186 -269 48 -21 64 -24 140 -20 100 5 150 26 211 87 150 150 106
413 -85 507 -58 29 -161 40 -219 25z m138 -155 c61 -26 107 -93 107 -157 0
-42 -34 -103 -72 -130 -48 -35 -132 -38 -177 -7 -53 36 -74 71 -78 130 -5 69
24 122 86 155 50 26 88 29 134 9z"/>
<path d="M1112 2167 c-20 -21 -22 -34 -22 -136 0 -106 1 -113 25 -136 30 -31
82 -33 113 -5 20 19 22 30 22 140 0 107 -2 122 -20 140 -29 29 -90 27 -118 -3z"/>
<path d="M1502 2167 c-20 -21 -22 -34 -22 -136 0 -106 1 -113 25 -136 30 -31
86 -34 114 -6 27 27 34 75 29 178 -4 74 -8 89 -27 105 -33 26 -92 24 -119 -5z"/>
<path d="M2752 2167 c-20 -21 -22 -34 -22 -136 0 -106 1 -113 25 -136 30 -31
86 -34 114 -6 27 27 34 75 29 178 -4 74 -8 89 -27 105 -33 26 -92 24 -119 -5z"/>
<path d="M3141 2164 c-18 -23 -21 -41 -21 -136 0 -102 1 -110 25 -133 30 -31
86 -34 114 -6 26 26 34 72 30 177 -4 76 -7 88 -28 105 -36 29 -94 25 -120 -7z"/>
<path d="M330 2090 c-29 -29 -27 -90 3 -118 23 -21 31 -22 255 -22 219 0 233
1 252 20 13 13 20 33 20 60 0 27 -7 47 -20 60 -19 19 -33 20 -255 20 -222 0
-236 -1 -255 -20z"/>
<path d="M3531 2084 c-28 -36 -27 -79 4 -109 l24 -25 229 0 c204 0 232 2 251
18 33 26 38 81 11 115 l-21 27 -239 0 -239 0 -20 -26z"/>
</g>
</svg>
