<?xml version="1.0" standalone="no"?>
<!DOCTYPE svg PUBLIC "-//W3C//DTD SVG 20010904//EN"
 "http://www.w3.org/TR/2001/REC-SVG-20010904/DTD/svg10.dtd">
<svg version="1.0" xmlns="http://www.w3.org/2000/svg"
 width="500.000000pt" height="500.000000pt" viewBox="0 0 500.000000 500.000000"
 preserveAspectRatio="xMidYMid meet">
<metadata>
Created by potrace 1.15, written by Peter Selinger 2001-2017
</metadata>
<g transform="translate(0.000000,500.000000) scale(0.100000,-0.100000)"
fill="#000000" stroke="none">
<path d="M293 4574 c-24 -14 -54 -44 -68 -68 l-25 -43 0 -1513 0 -1513 25 -43
c15 -26 43 -54 69 -69 l43 -25 781 0 782 0 0 -150 0 -150 -187 0 c-176 0 -191
-2 -238 -24 -73 -34 -110 -69 -144 -138 -31 -61 -31 -63 -31 -223 0 -162 0
-162 26 -189 l27 -26 1147 0 1147 0 27 26 c26 27 26 27 26 189 0 160 0 162
-31 223 -34 69 -71 104 -144 138 -47 22 -62 24 -237 24 l-188 0 0 150 0 150
782 0 781 0 43 25 c26 15 54 43 69 69 l25 43 0 1513 0 1513 -25 43 c-15 26
-43 54 -69 69 l-43 25 -2164 0 -2164 0 -42 -26z m4307 -1324 l0 -1150 -2100 0
-2100 0 0 1150 0 1150 2100 0 2100 0 0 -1150z m0 -1550 l0 -200 -2100 0 -2100
0 0 200 0 200 2100 0 2100 0 0 -200z m-1700 -550 l0 -150 -400 0 -400 0 0 150
0 150 400 0 400 0 0 -150z m523 -361 c49 -13 68 -45 75 -124 l5 -65 -1003 0
-1003 0 5 65 c7 77 26 111 71 124 46 13 1801 14 1850 0z"/>
<path d="M2755 4097 c-16 -8 -36 -25 -43 -38 -6 -13 -150 -391 -318 -839 -288
-768 -305 -817 -295 -851 14 -47 41 -70 88 -75 27 -4 47 1 69 14 28 18 53 79
333 826 167 444 307 820 311 836 25 88 -62 164 -145 127z"/>
<path d="M1773 3803 c-30 -6 -50 -28 -277 -313 -189 -237 -196 -247 -196 -290
0 -43 7 -53 196 -290 258 -323 245 -310 303 -310 67 0 101 34 101 99 0 45 -5
53 -180 271 -99 124 -180 227 -180 230 0 3 81 106 180 230 99 123 182 236 185
251 10 43 -19 97 -59 114 -20 8 -39 14 -43 14 -4 -1 -18 -4 -30 -6z"/>
<path d="M3152 3795 c-38 -17 -66 -73 -57 -114 3 -15 86 -128 185 -251 99
-124 180 -227 180 -230 0 -3 -81 -106 -180 -230 -175 -218 -180 -226 -180
-271 0 -65 34 -99 101 -99 58 0 45 -14 304 310 l196 245 -3 48 c-3 46 -11 59
-213 311 -115 145 -217 268 -225 274 -30 18 -75 22 -108 7z"/>
<path d="M4126 1774 c-21 -21 -26 -36 -26 -74 0 -38 5 -53 26 -74 21 -21 36
-26 74 -26 38 0 53 5 74 26 21 21 26 36 26 74 0 38 -5 53 -26 74 -21 21 -36
26 -74 26 -38 0 -53 -5 -74 -26z"/>
</g>
</svg>
