<svg height='100px' width='100px'  fill="#000000" xmlns="http://www.w3.org/2000/svg" viewBox="0 0 87.999993 87.999963" x="0px" y="0px"><path d="m294.29 405.51c-24.277 0-44 19.723-44 44 0 24.277 19.723 44 44 44 24.277 0 44-19.723 44-44 0-24.277-19.723-44-44-44m0 4c22.12 0 40 17.885 40 40 0 22.12-17.885 40-40 40-22.12 0-40-17.885-40-40 0-22.12 17.885-40 40-40m-14.5 28.998a6.5 6.5 0 0 0 -6.5 6.5 6.5 6.5 0 0 0 6.5 6.5 6.5 6.5 0 0 0 6.5 -6.5 6.5 6.5 0 0 0 -6.5 -6.5m29 0a6.5 6.5 0 0 0 -6.5 6.5 6.5 6.5 0 0 0 6.5 6.5 6.5 6.5 0 0 0 6.5 -6.5 6.5 6.5 0 0 0 -6.5 -6.5m-29.07 25.996l-3.426 2.065c0 0 6.426 10.941 17.998 10.941 11.572 0 18-10.941 18-10.941l-3.426-2.065c0 0-5.59 9.01-14.574 9.01-8.984 0-14.572-9.01-14.572-9.01" shape-rendering="auto" mix-blend-mode="normal" color-interpolation-filters="linearRGB" isolation="auto" white-space="normal" solid-opacity="1" image-rendering="auto" solid-color="#000000" color="#000" color-rendering="auto" color-interpolation="sRGB" transform="translate(-250.29-405.51)"></path></svg>