<?xml version="1.0" standalone="no"?>
<!DOCTYPE svg PUBLIC "-//W3C//DTD SVG 20010904//EN"
 "http://www.w3.org/TR/2001/REC-SVG-20010904/DTD/svg10.dtd">
<svg version="1.0" xmlns="http://www.w3.org/2000/svg"
 width="500.000000pt" height="500.000000pt" viewBox="0 0 500.000000 500.000000"
 preserveAspectRatio="xMidYMid meet">
<metadata>
Created by potrace 1.15, written by Peter Selinger 2001-2017
</metadata>
<g transform="translate(0.000000,500.000000) scale(0.100000,-0.100000)"
fill="#000000" stroke="none">
<path d="M365 4376 c-64 -29 -112 -77 -141 -141 l-24 -50 0 -1766 0 -1766 26
-27 27 -26 2247 0 2247 0 27 26 26 27 0 1766 0 1766 -24 50 c-29 64 -77 112
-141 141 l-50 24 -2085 0 -2085 0 -50 -24z m4202 -209 l28 -27 3 -470 3 -470
-2101 0 -2101 0 3 469 3 469 24 26 c13 14 33 27 45 29 11 2 931 4 2043 3
l2023 -1 27 -28z m33 -2267 l0 -1100 -2100 0 -2100 0 0 1100 0 1100 2100 0
2100 0 0 -1100z"/>
<path d="M1900 3700 l0 -300 1200 0 1200 0 0 300 0 300 -1200 0 -1200 0 0
-300z m2200 0 l0 -100 -1000 0 -1000 0 0 100 0 100 1000 0 1000 0 0 -100z"/>
<path d="M693 3874 c-62 -37 -93 -95 -93 -174 0 -123 77 -200 200 -200 123 0
200 77 200 200 0 123 -77 200 -201 200 -51 0 -73 -5 -106 -26z"/>
<path d="M1293 3874 c-62 -37 -93 -95 -93 -174 0 -123 77 -200 200 -200 123 0
200 77 200 200 0 123 -77 200 -201 200 -51 0 -73 -5 -106 -26z"/>
<path d="M700 2350 l0 -350 1100 0 1100 0 0 350 0 350 -1100 0 -1100 0 0 -350z
m2000 0 l0 -150 -900 0 -900 0 0 150 0 150 900 0 900 0 0 -150z"/>
<path d="M3200 1900 l0 -800 550 0 550 0 0 800 0 800 -550 0 -550 0 0 -800z
m900 0 l0 -600 -350 0 -350 0 0 600 0 600 350 0 350 0 0 -600z"/>
<path d="M700 1450 l0 -350 1100 0 1100 0 0 350 0 350 -1100 0 -1100 0 0 -350z
m2000 0 l0 -150 -900 0 -900 0 0 150 0 150 900 0 900 0 0 -150z"/>
</g>
</svg>
